# xmcd CD database file
#
# Track frame offsets:
#	150
#	15392
#	29904
#	46084
#	63631
#	84845
#	106524
#	127091
#	149104
#	169795
#
# Disc length: 2538 seconds
#
# Revision: 0
# Processed by: cddbd v1.5.2PL0 Copyright (c) Steve Scherf et al.
# Submitted via: CDex 1.51
#
DISCID=8409e80a
DTITLE=Niight Time Cafe - Jazz Street Vocal
DYEAR=1900
DGENRE=Jazz
TTITLE0=Clementine
TTITLE1=East of The Sun
TTITLE2=Summertime
TTITLE3=Danny Boy
TTITLE4=The Call of The Canyon
TTITLE5=Georgia On My Mind
TTITLE6=Ciribiribin
TTITLE7=Nobody Knows When You're Down and Out
TTITLE8=When The Saints Go Marching In
TTITLE9=Amazing Grace
EXTD=
EXTT0=
EXTT1=
EXTT2=
EXTT3=
EXTT4=
EXTT5=
EXTT6=
EXTT7=
EXTT8=
EXTT9=
PLAYORDER=
